<svg xmlns="http://www.w3.org/2000/svg" width="1200" height="590" viewBox="0 0 1200 590" role="img" aria-labelledby="title desc">
  <title id="title">Arcsine and semicircle densities on the same axes</title>
  <desc id="desc">The solid blue arcsine density is U-shaped and leaves the plot at both endpoints because it diverges. The dashed rust semicircle density peaks at zero and vanishes at both endpoints.</desc>
  <rect width="1200" height="590" fill="#fdfdfd" />
  <style>
    text { font-family: -apple-system, BlinkMacSystemFont, "Segoe UI", sans-serif; fill: #172033; letter-spacing: 0; }
    .tick { font-size: 16px; fill: #5d6778; }
    .legend { font-size: 17px; font-weight: 650; }
    .legend-note { font-size: 15px; fill: #5d6778; }
  </style>
  <defs>
    <clipPath id="plot-clip"><rect x="94" y="82" width="1056" height="428" /></clipPath>
  </defs>

  <line x1="94" y1="36" x2="142" y2="36" stroke="#3157c8" stroke-width="4" stroke-linecap="round" />
  <text x="155" y="42" class="legend">Arcsine</text>
  <text x="231" y="42" class="legend-note">diverges at ±2</text>

  <line x1="424" y1="36" x2="472" y2="36" stroke="#b3541e" stroke-width="4" stroke-dasharray="12 8" stroke-linecap="round" />
  <text x="485" y="42" class="legend">Semicircle</text>
  <text x="1150" y="42" text-anchor="end" class="legend-note">same horizontal and vertical scales</text>

  <line x1="94" y1="510.00" x2="1150" y2="510.00" stroke="#d9dee8" stroke-width="1" /><text x="79" y="515.00" text-anchor="end" class="tick">0</text><line x1="94" y1="411.23" x2="1150" y2="411.23" stroke="#d9dee8" stroke-width="1" /><text x="79" y="416.23" text-anchor="end" class="tick">0.15</text><line x1="94" y1="312.46" x2="1150" y2="312.46" stroke="#d9dee8" stroke-width="1" /><text x="79" y="317.46" text-anchor="end" class="tick">0.3</text><line x1="94" y1="213.69" x2="1150" y2="213.69" stroke="#d9dee8" stroke-width="1" /><text x="79" y="218.69" text-anchor="end" class="tick">0.45</text><line x1="94" y1="114.92" x2="1150" y2="114.92" stroke="#d9dee8" stroke-width="1" /><text x="79" y="119.92" text-anchor="end" class="tick">0.6</text>
  <line x1="94" y1="510" x2="1150" y2="510" stroke="#172033" stroke-width="1.8" />
  <line x1="94" y1="82" x2="94" y2="510" stroke="#172033" stroke-width="1.8" />
  <line x1="94.00" y1="510" x2="94.00" y2="517" stroke="#172033" stroke-width="1.5" /><text x="94.00" y="541" text-anchor="middle" class="tick">-2</text><line x1="358.00" y1="510" x2="358.00" y2="517" stroke="#172033" stroke-width="1.5" /><text x="358.00" y="541" text-anchor="middle" class="tick">-1</text><line x1="622.00" y1="510" x2="622.00" y2="517" stroke="#172033" stroke-width="1.5" /><text x="622.00" y="541" text-anchor="middle" class="tick">0</text><line x1="886.00" y1="510" x2="886.00" y2="517" stroke="#172033" stroke-width="1.5" /><text x="886.00" y="541" text-anchor="middle" class="tick">1</text><line x1="1150.00" y1="510" x2="1150.00" y2="517" stroke="#172033" stroke-width="1.5" /><text x="1150.00" y="541" text-anchor="middle" class="tick">2</text>
  <text x="622.00" y="575" text-anchor="middle" class="tick">x</text>
  <text x="28" y="296.00" text-anchor="middle" class="tick" transform="rotate(-90 28 296.00)">density</text>

  <g clip-path="url(#plot-clip)">
    <path d="M 94.26 -2804.40 L 95.91 -722.17 L 97.56 -393.69 L 99.21 -237.73 L 100.86 -142.20 L 102.51 -76.07 L 104.16 -26.82 L 105.81 11.69 L 107.46 42.85 L 109.11 68.74 L 110.76 90.68 L 112.40 109.59 L 114.05 126.10 L 115.70 140.68 L 117.35 153.68 L 119.00 165.36 L 120.65 175.92 L 122.30 185.54 L 123.95 194.35 L 125.60 202.45 L 127.25 209.93 L 128.90 216.87 L 130.55 223.33 L 132.20 229.36 L 133.84 235.01 L 135.49 240.31 L 137.14 245.30 L 138.79 250.00 L 140.44 254.45 L 142.09 258.67 L 143.74 262.67 L 145.39 266.47 L 147.04 270.09 L 148.69 273.54 L 150.34 276.83 L 151.99 279.98 L 153.63 283.00 L 155.28 285.89 L 156.93 288.66 L 158.58 291.32 L 160.23 293.88 L 161.88 296.35 L 163.53 298.72 L 165.18 301.01 L 166.83 303.21 L 168.48 305.34 L 170.13 307.40 L 171.78 309.39 L 173.42 311.32 L 175.07 313.18 L 176.72 314.99 L 178.37 316.74 L 180.02 318.44 L 181.67 320.09 L 183.32 321.69 L 184.97 323.25 L 186.62 324.76 L 188.27 326.23 L 189.92 327.66 L 191.57 329.05 L 193.21 330.41 L 194.86 331.73 L 196.51 333.01 L 198.16 334.27 L 199.81 335.49 L 201.46 336.69 L 203.11 337.85 L 204.76 338.99 L 206.41 340.10 L 208.06 341.18 L 209.71 342.25 L 211.36 343.28 L 213.00 344.30 L 214.65 345.29 L 216.30 346.26 L 217.95 347.21 L 219.60 348.14 L 221.25 349.04 L 222.90 349.94 L 224.55 350.81 L 226.20 351.66 L 227.85 352.50 L 229.50 353.32 L 231.15 354.13 L 232.79 354.92 L 234.44 355.69 L 236.09 356.45 L 237.74 357.20 L 239.39 357.93 L 241.04 358.65 L 242.69 359.35 L 244.34 360.04 L 245.99 360.72 L 247.64 361.39 L 249.29 362.05 L 250.94 362.69 L 252.58 363.32 L 254.23 363.95 L 255.88 364.56 L 257.53 365.16 L 259.18 365.75 L 260.83 366.33 L 262.48 366.91 L 264.13 367.47 L 265.78 368.02 L 267.43 368.57 L 269.08 369.10 L 270.73 369.63 L 272.37 370.15 L 274.02 370.66 L 275.67 371.16 L 277.32 371.66 L 278.97 372.15 L 280.62 372.63 L 282.27 373.10 L 283.92 373.57 L 285.57 374.03 L 287.22 374.48 L 288.87 374.92 L 290.52 375.36 L 292.16 375.79 L 293.81 376.22 L 295.46 376.64 L 297.11 377.06 L 298.76 377.46 L 300.41 377.87 L 302.06 378.26 L 303.71 378.65 L 305.36 379.04 L 307.01 379.42 L 308.66 379.80 L 310.31 380.17 L 311.96 380.53 L 313.60 380.89 L 315.25 381.25 L 316.90 381.60 L 318.55 381.94 L 320.20 382.28 L 321.85 382.62 L 323.50 382.95 L 325.15 383.28 L 326.80 383.60 L 328.45 383.92 L 330.10 384.24 L 331.75 384.55 L 333.39 384.85 L 335.04 385.16 L 336.69 385.45 L 338.34 385.75 L 339.99 386.04 L 341.64 386.33 L 343.29 386.61 L 344.94 386.89 L 346.59 387.17 L 348.24 387.44 L 349.89 387.71 L 351.54 387.98 L 353.18 388.24 L 354.83 388.50 L 356.48 388.76 L 358.13 389.01 L 359.78 389.26 L 361.43 389.51 L 363.08 389.75 L 364.73 389.99 L 366.38 390.23 L 368.03 390.47 L 369.68 390.70 L 371.33 390.93 L 372.97 391.15 L 374.62 391.38 L 376.27 391.60 L 377.92 391.82 L 379.57 392.03 L 381.22 392.25 L 382.87 392.46 L 384.52 392.66 L 386.17 392.87 L 387.82 393.07 L 389.47 393.27 L 391.12 393.47 L 392.76 393.67 L 394.41 393.86 L 396.06 394.05 L 397.71 394.24 L 399.36 394.43 L 401.01 394.61 L 402.66 394.79 L 404.31 394.97 L 405.96 395.15 L 407.61 395.32 L 409.26 395.50 L 410.91 395.67 L 412.55 395.84 L 414.20 396.00 L 415.85 396.17 L 417.50 396.33 L 419.15 396.49 L 420.80 396.65 L 422.45 396.81 L 424.10 396.96 L 425.75 397.12 L 427.40 397.27 L 429.05 397.42 L 430.70 397.56 L 432.34 397.71 L 433.99 397.85 L 435.64 397.99 L 437.29 398.13 L 438.94 398.27 L 440.59 398.41 L 442.24 398.54 L 443.89 398.68 L 445.54 398.81 L 447.19 398.94 L 448.84 399.07 L 450.49 399.19 L 452.13 399.32 L 453.78 399.44 L 455.43 399.56 L 457.08 399.68 L 458.73 399.80 L 460.38 399.92 L 462.03 400.03 L 463.68 400.15 L 465.33 400.26 L 466.98 400.37 L 468.63 400.48 L 470.28 400.59 L 471.93 400.69 L 473.57 400.80 L 475.22 400.90 L 476.87 401.00 L 478.52 401.10 L 480.17 401.20 L 481.82 401.30 L 483.47 401.40 L 485.12 401.49 L 486.77 401.59 L 488.42 401.68 L 490.07 401.77 L 491.72 401.86 L 493.36 401.95 L 495.01 402.03 L 496.66 402.12 L 498.31 402.20 L 499.96 402.29 L 501.61 402.37 L 503.26 402.45 L 504.91 402.53 L 506.56 402.60 L 508.21 402.68 L 509.86 402.76 L 511.51 402.83 L 513.15 402.90 L 514.80 402.97 L 516.45 403.04 L 518.10 403.11 L 519.75 403.18 L 521.40 403.25 L 523.05 403.31 L 524.70 403.38 L 526.35 403.44 L 528.00 403.50 L 529.65 403.56 L 531.30 403.62 L 532.94 403.68 L 534.59 403.74 L 536.24 403.79 L 537.89 403.85 L 539.54 403.90 L 541.19 403.95 L 542.84 404.00 L 544.49 404.05 L 546.14 404.10 L 547.79 404.15 L 549.44 404.20 L 551.09 404.24 L 552.73 404.29 L 554.38 404.33 L 556.03 404.37 L 557.68 404.42 L 559.33 404.46 L 560.98 404.50 L 562.63 404.53 L 564.28 404.57 L 565.93 404.61 L 567.58 404.64 L 569.23 404.68 L 570.88 404.71 L 572.52 404.74 L 574.17 404.77 L 575.82 404.80 L 577.47 404.83 L 579.12 404.86 L 580.77 404.88 L 582.42 404.91 L 584.07 404.93 L 585.72 404.95 L 587.37 404.98 L 589.02 405.00 L 590.67 405.02 L 592.31 405.04 L 593.96 405.05 L 595.61 405.07 L 597.26 405.09 L 598.91 405.10 L 600.56 405.12 L 602.21 405.13 L 603.86 405.14 L 605.51 405.15 L 607.16 405.16 L 608.81 405.17 L 610.46 405.18 L 612.10 405.18 L 613.75 405.19 L 615.40 405.19 L 617.05 405.20 L 618.70 405.20 L 620.35 405.20 L 622.00 405.20 L 623.65 405.20 L 625.30 405.20 L 626.95 405.20 L 628.60 405.19 L 630.25 405.19 L 631.90 405.18 L 633.54 405.18 L 635.19 405.17 L 636.84 405.16 L 638.49 405.15 L 640.14 405.14 L 641.79 405.13 L 643.44 405.12 L 645.09 405.10 L 646.74 405.09 L 648.39 405.07 L 650.04 405.05 L 651.69 405.04 L 653.33 405.02 L 654.98 405.00 L 656.63 404.98 L 658.28 404.95 L 659.93 404.93 L 661.58 404.91 L 663.23 404.88 L 664.88 404.86 L 666.53 404.83 L 668.18 404.80 L 669.83 404.77 L 671.48 404.74 L 673.12 404.71 L 674.77 404.68 L 676.42 404.64 L 678.07 404.61 L 679.72 404.57 L 681.37 404.53 L 683.02 404.50 L 684.67 404.46 L 686.32 404.42 L 687.97 404.37 L 689.62 404.33 L 691.27 404.29 L 692.91 404.24 L 694.56 404.20 L 696.21 404.15 L 697.86 404.10 L 699.51 404.05 L 701.16 404.00 L 702.81 403.95 L 704.46 403.90 L 706.11 403.85 L 707.76 403.79 L 709.41 403.74 L 711.06 403.68 L 712.70 403.62 L 714.35 403.56 L 716.00 403.50 L 717.65 403.44 L 719.30 403.38 L 720.95 403.31 L 722.60 403.25 L 724.25 403.18 L 725.90 403.11 L 727.55 403.04 L 729.20 402.97 L 730.85 402.90 L 732.49 402.83 L 734.14 402.76 L 735.79 402.68 L 737.44 402.60 L 739.09 402.53 L 740.74 402.45 L 742.39 402.37 L 744.04 402.29 L 745.69 402.20 L 747.34 402.12 L 748.99 402.03 L 750.64 401.95 L 752.28 401.86 L 753.93 401.77 L 755.58 401.68 L 757.23 401.59 L 758.88 401.49 L 760.53 401.40 L 762.18 401.30 L 763.83 401.20 L 765.48 401.10 L 767.13 401.00 L 768.78 400.90 L 770.43 400.80 L 772.07 400.69 L 773.72 400.59 L 775.37 400.48 L 777.02 400.37 L 778.67 400.26 L 780.32 400.15 L 781.97 400.03 L 783.62 399.92 L 785.27 399.80 L 786.92 399.68 L 788.57 399.56 L 790.22 399.44 L 791.87 399.32 L 793.51 399.19 L 795.16 399.07 L 796.81 398.94 L 798.46 398.81 L 800.11 398.68 L 801.76 398.54 L 803.41 398.41 L 805.06 398.27 L 806.71 398.13 L 808.36 397.99 L 810.01 397.85 L 811.66 397.71 L 813.30 397.56 L 814.95 397.42 L 816.60 397.27 L 818.25 397.12 L 819.90 396.96 L 821.55 396.81 L 823.20 396.65 L 824.85 396.49 L 826.50 396.33 L 828.15 396.17 L 829.80 396.00 L 831.45 395.84 L 833.09 395.67 L 834.74 395.50 L 836.39 395.32 L 838.04 395.15 L 839.69 394.97 L 841.34 394.79 L 842.99 394.61 L 844.64 394.43 L 846.29 394.24 L 847.94 394.05 L 849.59 393.86 L 851.24 393.67 L 852.88 393.47 L 854.53 393.27 L 856.18 393.07 L 857.83 392.87 L 859.48 392.66 L 861.13 392.46 L 862.78 392.25 L 864.43 392.03 L 866.08 391.82 L 867.73 391.60 L 869.38 391.38 L 871.03 391.15 L 872.67 390.93 L 874.32 390.70 L 875.97 390.47 L 877.62 390.23 L 879.27 389.99 L 880.92 389.75 L 882.57 389.51 L 884.22 389.26 L 885.87 389.01 L 887.52 388.76 L 889.17 388.50 L 890.82 388.24 L 892.46 387.98 L 894.11 387.71 L 895.76 387.44 L 897.41 387.17 L 899.06 386.89 L 900.71 386.61 L 902.36 386.33 L 904.01 386.04 L 905.66 385.75 L 907.31 385.45 L 908.96 385.16 L 910.61 384.85 L 912.25 384.55 L 913.90 384.24 L 915.55 383.92 L 917.20 383.60 L 918.85 383.28 L 920.50 382.95 L 922.15 382.62 L 923.80 382.28 L 925.45 381.94 L 927.10 381.60 L 928.75 381.25 L 930.40 380.89 L 932.04 380.53 L 933.69 380.17 L 935.34 379.80 L 936.99 379.42 L 938.64 379.04 L 940.29 378.65 L 941.94 378.26 L 943.59 377.87 L 945.24 377.46 L 946.89 377.06 L 948.54 376.64 L 950.19 376.22 L 951.84 375.79 L 953.48 375.36 L 955.13 374.92 L 956.78 374.48 L 958.43 374.03 L 960.08 373.57 L 961.73 373.10 L 963.38 372.63 L 965.03 372.15 L 966.68 371.66 L 968.33 371.16 L 969.98 370.66 L 971.63 370.15 L 973.27 369.63 L 974.92 369.10 L 976.57 368.57 L 978.22 368.02 L 979.87 367.47 L 981.52 366.91 L 983.17 366.33 L 984.82 365.75 L 986.47 365.16 L 988.12 364.56 L 989.77 363.95 L 991.42 363.32 L 993.06 362.69 L 994.71 362.05 L 996.36 361.39 L 998.01 360.72 L 999.66 360.04 L 1001.31 359.35 L 1002.96 358.65 L 1004.61 357.93 L 1006.26 357.20 L 1007.91 356.45 L 1009.56 355.69 L 1011.21 354.92 L 1012.85 354.13 L 1014.50 353.32 L 1016.15 352.50 L 1017.80 351.66 L 1019.45 350.81 L 1021.10 349.94 L 1022.75 349.04 L 1024.40 348.14 L 1026.05 347.21 L 1027.70 346.26 L 1029.35 345.29 L 1031.00 344.30 L 1032.64 343.28 L 1034.29 342.25 L 1035.94 341.18 L 1037.59 340.10 L 1039.24 338.99 L 1040.89 337.85 L 1042.54 336.69 L 1044.19 335.49 L 1045.84 334.27 L 1047.49 333.01 L 1049.14 331.73 L 1050.79 330.41 L 1052.43 329.05 L 1054.08 327.66 L 1055.73 326.23 L 1057.38 324.76 L 1059.03 323.25 L 1060.68 321.69 L 1062.33 320.09 L 1063.98 318.44 L 1065.63 316.74 L 1067.28 314.99 L 1068.93 313.18 L 1070.58 311.32 L 1072.22 309.39 L 1073.87 307.40 L 1075.52 305.34 L 1077.17 303.21 L 1078.82 301.01 L 1080.47 298.72 L 1082.12 296.35 L 1083.77 293.88 L 1085.42 291.32 L 1087.07 288.66 L 1088.72 285.89 L 1090.37 283.00 L 1092.01 279.98 L 1093.66 276.83 L 1095.31 273.54 L 1096.96 270.09 L 1098.61 266.47 L 1100.26 262.67 L 1101.91 258.67 L 1103.56 254.45 L 1105.21 250.00 L 1106.86 245.30 L 1108.51 240.31 L 1110.16 235.01 L 1111.80 229.36 L 1113.45 223.33 L 1115.10 216.87 L 1116.75 209.93 L 1118.40 202.45 L 1120.05 194.35 L 1121.70 185.54 L 1123.35 175.92 L 1125.00 165.36 L 1126.65 153.68 L 1128.30 140.68 L 1129.95 126.10 L 1131.60 109.59 L 1133.24 90.68 L 1134.89 68.74 L 1136.54 42.85 L 1138.19 11.69 L 1139.84 -26.82 L 1141.49 -76.07 L 1143.14 -142.20 L 1144.79 -237.73 L 1146.44 -393.69 L 1148.09 -722.17 L 1149.74 -2804.40" fill="none" stroke="#3157c8" stroke-width="4" stroke-linecap="round" />
    <path d="M 94.26 503.37 L 95.91 492.17 L 97.56 485.69 L 99.21 480.62 L 100.86 476.32 L 102.51 472.52 L 104.16 469.08 L 105.81 465.92 L 107.46 462.98 L 109.11 460.22 L 110.76 457.62 L 112.40 455.14 L 114.05 452.78 L 115.70 450.53 L 117.35 448.36 L 119.00 446.27 L 120.65 444.25 L 122.30 442.30 L 123.95 440.41 L 125.60 438.58 L 127.25 436.80 L 128.90 435.07 L 130.55 433.38 L 132.20 431.73 L 133.84 430.13 L 135.49 428.56 L 137.14 427.02 L 138.79 425.52 L 140.44 424.05 L 142.09 422.61 L 143.74 421.19 L 145.39 419.81 L 147.04 418.45 L 148.69 417.11 L 150.34 415.80 L 151.99 414.51 L 153.63 413.24 L 155.28 411.99 L 156.93 410.76 L 158.58 409.55 L 160.23 408.36 L 161.88 407.19 L 163.53 406.04 L 165.18 404.90 L 166.83 403.78 L 168.48 402.67 L 170.13 401.58 L 171.78 400.51 L 173.42 399.45 L 175.07 398.40 L 176.72 397.36 L 178.37 396.34 L 180.02 395.34 L 181.67 394.34 L 183.32 393.36 L 184.97 392.38 L 186.62 391.42 L 188.27 390.48 L 189.92 389.54 L 191.57 388.61 L 193.21 387.70 L 194.86 386.79 L 196.51 385.89 L 198.16 385.01 L 199.81 384.13 L 201.46 383.26 L 203.11 382.41 L 204.76 381.56 L 206.41 380.72 L 208.06 379.89 L 209.71 379.06 L 211.36 378.25 L 213.00 377.44 L 214.65 376.65 L 216.30 375.86 L 217.95 375.07 L 219.60 374.30 L 221.25 373.53 L 222.90 372.77 L 224.55 372.02 L 226.20 371.28 L 227.85 370.54 L 229.50 369.81 L 231.15 369.08 L 232.79 368.37 L 234.44 367.66 L 236.09 366.95 L 237.74 366.25 L 239.39 365.56 L 241.04 364.88 L 242.69 364.20 L 244.34 363.52 L 245.99 362.86 L 247.64 362.20 L 249.29 361.54 L 250.94 360.89 L 252.58 360.25 L 254.23 359.61 L 255.88 358.98 L 257.53 358.35 L 259.18 357.73 L 260.83 357.11 L 262.48 356.50 L 264.13 355.89 L 265.78 355.29 L 267.43 354.70 L 269.08 354.11 L 270.73 353.52 L 272.37 352.94 L 274.02 352.36 L 275.67 351.79 L 277.32 351.23 L 278.97 350.66 L 280.62 350.11 L 282.27 349.55 L 283.92 349.01 L 285.57 348.46 L 287.22 347.92 L 288.87 347.39 L 290.52 346.86 L 292.16 346.33 L 293.81 345.81 L 295.46 345.29 L 297.11 344.78 L 298.76 344.27 L 300.41 343.77 L 302.06 343.27 L 303.71 342.77 L 305.36 342.28 L 307.01 341.79 L 308.66 341.30 L 310.31 340.82 L 311.96 340.35 L 313.60 339.87 L 315.25 339.40 L 316.90 338.94 L 318.55 338.48 L 320.20 338.02 L 321.85 337.56 L 323.50 337.11 L 325.15 336.67 L 326.80 336.22 L 328.45 335.78 L 330.10 335.35 L 331.75 334.92 L 333.39 334.49 L 335.04 334.06 L 336.69 333.64 L 338.34 333.22 L 339.99 332.81 L 341.64 332.39 L 343.29 331.98 L 344.94 331.58 L 346.59 331.18 L 348.24 330.78 L 349.89 330.38 L 351.54 329.99 L 353.18 329.60 L 354.83 329.22 L 356.48 328.83 L 358.13 328.46 L 359.78 328.08 L 361.43 327.71 L 363.08 327.34 L 364.73 326.97 L 366.38 326.61 L 368.03 326.24 L 369.68 325.89 L 371.33 325.53 L 372.97 325.18 L 374.62 324.83 L 376.27 324.49 L 377.92 324.14 L 379.57 323.80 L 381.22 323.47 L 382.87 323.13 L 384.52 322.80 L 386.17 322.47 L 387.82 322.15 L 389.47 321.83 L 391.12 321.51 L 392.76 321.19 L 394.41 320.88 L 396.06 320.56 L 397.71 320.26 L 399.36 319.95 L 401.01 319.65 L 402.66 319.35 L 404.31 319.05 L 405.96 318.75 L 407.61 318.46 L 409.26 318.17 L 410.91 317.88 L 412.55 317.60 L 414.20 317.32 L 415.85 317.04 L 417.50 316.76 L 419.15 316.49 L 420.80 316.22 L 422.45 315.95 L 424.10 315.68 L 425.75 315.42 L 427.40 315.16 L 429.05 314.90 L 430.70 314.65 L 432.34 314.39 L 433.99 314.14 L 435.64 313.89 L 437.29 313.65 L 438.94 313.41 L 440.59 313.16 L 442.24 312.93 L 443.89 312.69 L 445.54 312.46 L 447.19 312.23 L 448.84 312.00 L 450.49 311.77 L 452.13 311.55 L 453.78 311.33 L 455.43 311.11 L 457.08 310.89 L 458.73 310.68 L 460.38 310.47 L 462.03 310.26 L 463.68 310.05 L 465.33 309.84 L 466.98 309.64 L 468.63 309.44 L 470.28 309.25 L 471.93 309.05 L 473.57 308.86 L 475.22 308.67 L 476.87 308.48 L 478.52 308.29 L 480.17 308.11 L 481.82 307.93 L 483.47 307.75 L 485.12 307.57 L 486.77 307.40 L 488.42 307.22 L 490.07 307.05 L 491.72 306.89 L 493.36 306.72 L 495.01 306.56 L 496.66 306.40 L 498.31 306.24 L 499.96 306.08 L 501.61 305.93 L 503.26 305.77 L 504.91 305.62 L 506.56 305.48 L 508.21 305.33 L 509.86 305.19 L 511.51 305.05 L 513.15 304.91 L 514.80 304.77 L 516.45 304.64 L 518.10 304.50 L 519.75 304.37 L 521.40 304.24 L 523.05 304.12 L 524.70 303.99 L 526.35 303.87 L 528.00 303.75 L 529.65 303.64 L 531.30 303.52 L 532.94 303.41 L 534.59 303.30 L 536.24 303.19 L 537.89 303.08 L 539.54 302.98 L 541.19 302.87 L 542.84 302.77 L 544.49 302.68 L 546.14 302.58 L 547.79 302.49 L 549.44 302.39 L 551.09 302.30 L 552.73 302.22 L 554.38 302.13 L 556.03 302.05 L 557.68 301.97 L 559.33 301.89 L 560.98 301.81 L 562.63 301.73 L 564.28 301.66 L 565.93 301.59 L 567.58 301.52 L 569.23 301.45 L 570.88 301.39 L 572.52 301.33 L 574.17 301.27 L 575.82 301.21 L 577.47 301.15 L 579.12 301.10 L 580.77 301.05 L 582.42 300.99 L 584.07 300.95 L 585.72 300.90 L 587.37 300.86 L 589.02 300.81 L 590.67 300.77 L 592.31 300.74 L 593.96 300.70 L 595.61 300.67 L 597.26 300.64 L 598.91 300.61 L 600.56 300.58 L 602.21 300.55 L 603.86 300.53 L 605.51 300.51 L 607.16 300.49 L 608.81 300.47 L 610.46 300.46 L 612.10 300.44 L 613.75 300.43 L 615.40 300.42 L 617.05 300.41 L 618.70 300.41 L 620.35 300.41 L 622.00 300.41 L 623.65 300.41 L 625.30 300.41 L 626.95 300.41 L 628.60 300.42 L 630.25 300.43 L 631.90 300.44 L 633.54 300.46 L 635.19 300.47 L 636.84 300.49 L 638.49 300.51 L 640.14 300.53 L 641.79 300.55 L 643.44 300.58 L 645.09 300.61 L 646.74 300.64 L 648.39 300.67 L 650.04 300.70 L 651.69 300.74 L 653.33 300.77 L 654.98 300.81 L 656.63 300.86 L 658.28 300.90 L 659.93 300.95 L 661.58 300.99 L 663.23 301.05 L 664.88 301.10 L 666.53 301.15 L 668.18 301.21 L 669.83 301.27 L 671.48 301.33 L 673.12 301.39 L 674.77 301.45 L 676.42 301.52 L 678.07 301.59 L 679.72 301.66 L 681.37 301.73 L 683.02 301.81 L 684.67 301.89 L 686.32 301.97 L 687.97 302.05 L 689.62 302.13 L 691.27 302.22 L 692.91 302.30 L 694.56 302.39 L 696.21 302.49 L 697.86 302.58 L 699.51 302.68 L 701.16 302.77 L 702.81 302.87 L 704.46 302.98 L 706.11 303.08 L 707.76 303.19 L 709.41 303.30 L 711.06 303.41 L 712.70 303.52 L 714.35 303.64 L 716.00 303.75 L 717.65 303.87 L 719.30 303.99 L 720.95 304.12 L 722.60 304.24 L 724.25 304.37 L 725.90 304.50 L 727.55 304.64 L 729.20 304.77 L 730.85 304.91 L 732.49 305.05 L 734.14 305.19 L 735.79 305.33 L 737.44 305.48 L 739.09 305.62 L 740.74 305.77 L 742.39 305.93 L 744.04 306.08 L 745.69 306.24 L 747.34 306.40 L 748.99 306.56 L 750.64 306.72 L 752.28 306.89 L 753.93 307.05 L 755.58 307.22 L 757.23 307.40 L 758.88 307.57 L 760.53 307.75 L 762.18 307.93 L 763.83 308.11 L 765.48 308.29 L 767.13 308.48 L 768.78 308.67 L 770.43 308.86 L 772.07 309.05 L 773.72 309.25 L 775.37 309.44 L 777.02 309.64 L 778.67 309.84 L 780.32 310.05 L 781.97 310.26 L 783.62 310.47 L 785.27 310.68 L 786.92 310.89 L 788.57 311.11 L 790.22 311.33 L 791.87 311.55 L 793.51 311.77 L 795.16 312.00 L 796.81 312.23 L 798.46 312.46 L 800.11 312.69 L 801.76 312.93 L 803.41 313.16 L 805.06 313.41 L 806.71 313.65 L 808.36 313.89 L 810.01 314.14 L 811.66 314.39 L 813.30 314.65 L 814.95 314.90 L 816.60 315.16 L 818.25 315.42 L 819.90 315.68 L 821.55 315.95 L 823.20 316.22 L 824.85 316.49 L 826.50 316.76 L 828.15 317.04 L 829.80 317.32 L 831.45 317.60 L 833.09 317.88 L 834.74 318.17 L 836.39 318.46 L 838.04 318.75 L 839.69 319.05 L 841.34 319.35 L 842.99 319.65 L 844.64 319.95 L 846.29 320.26 L 847.94 320.56 L 849.59 320.88 L 851.24 321.19 L 852.88 321.51 L 854.53 321.83 L 856.18 322.15 L 857.83 322.47 L 859.48 322.80 L 861.13 323.13 L 862.78 323.47 L 864.43 323.80 L 866.08 324.14 L 867.73 324.49 L 869.38 324.83 L 871.03 325.18 L 872.67 325.53 L 874.32 325.89 L 875.97 326.24 L 877.62 326.61 L 879.27 326.97 L 880.92 327.34 L 882.57 327.71 L 884.22 328.08 L 885.87 328.46 L 887.52 328.83 L 889.17 329.22 L 890.82 329.60 L 892.46 329.99 L 894.11 330.38 L 895.76 330.78 L 897.41 331.18 L 899.06 331.58 L 900.71 331.98 L 902.36 332.39 L 904.01 332.81 L 905.66 333.22 L 907.31 333.64 L 908.96 334.06 L 910.61 334.49 L 912.25 334.92 L 913.90 335.35 L 915.55 335.78 L 917.20 336.22 L 918.85 336.67 L 920.50 337.11 L 922.15 337.56 L 923.80 338.02 L 925.45 338.48 L 927.10 338.94 L 928.75 339.40 L 930.40 339.87 L 932.04 340.35 L 933.69 340.82 L 935.34 341.30 L 936.99 341.79 L 938.64 342.28 L 940.29 342.77 L 941.94 343.27 L 943.59 343.77 L 945.24 344.27 L 946.89 344.78 L 948.54 345.29 L 950.19 345.81 L 951.84 346.33 L 953.48 346.86 L 955.13 347.39 L 956.78 347.92 L 958.43 348.46 L 960.08 349.01 L 961.73 349.55 L 963.38 350.11 L 965.03 350.66 L 966.68 351.23 L 968.33 351.79 L 969.98 352.36 L 971.63 352.94 L 973.27 353.52 L 974.92 354.11 L 976.57 354.70 L 978.22 355.29 L 979.87 355.89 L 981.52 356.50 L 983.17 357.11 L 984.82 357.73 L 986.47 358.35 L 988.12 358.98 L 989.77 359.61 L 991.42 360.25 L 993.06 360.89 L 994.71 361.54 L 996.36 362.20 L 998.01 362.86 L 999.66 363.52 L 1001.31 364.20 L 1002.96 364.88 L 1004.61 365.56 L 1006.26 366.25 L 1007.91 366.95 L 1009.56 367.66 L 1011.21 368.37 L 1012.85 369.08 L 1014.50 369.81 L 1016.15 370.54 L 1017.80 371.28 L 1019.45 372.02 L 1021.10 372.77 L 1022.75 373.53 L 1024.40 374.30 L 1026.05 375.07 L 1027.70 375.86 L 1029.35 376.65 L 1031.00 377.44 L 1032.64 378.25 L 1034.29 379.06 L 1035.94 379.89 L 1037.59 380.72 L 1039.24 381.56 L 1040.89 382.41 L 1042.54 383.26 L 1044.19 384.13 L 1045.84 385.01 L 1047.49 385.89 L 1049.14 386.79 L 1050.79 387.70 L 1052.43 388.61 L 1054.08 389.54 L 1055.73 390.48 L 1057.38 391.42 L 1059.03 392.38 L 1060.68 393.36 L 1062.33 394.34 L 1063.98 395.34 L 1065.63 396.34 L 1067.28 397.36 L 1068.93 398.40 L 1070.58 399.45 L 1072.22 400.51 L 1073.87 401.58 L 1075.52 402.67 L 1077.17 403.78 L 1078.82 404.90 L 1080.47 406.04 L 1082.12 407.19 L 1083.77 408.36 L 1085.42 409.55 L 1087.07 410.76 L 1088.72 411.99 L 1090.37 413.24 L 1092.01 414.51 L 1093.66 415.80 L 1095.31 417.11 L 1096.96 418.45 L 1098.61 419.81 L 1100.26 421.19 L 1101.91 422.61 L 1103.56 424.05 L 1105.21 425.52 L 1106.86 427.02 L 1108.51 428.56 L 1110.16 430.13 L 1111.80 431.73 L 1113.45 433.38 L 1115.10 435.07 L 1116.75 436.80 L 1118.40 438.58 L 1120.05 440.41 L 1121.70 442.30 L 1123.35 444.25 L 1125.00 446.27 L 1126.65 448.36 L 1128.30 450.53 L 1129.95 452.78 L 1131.60 455.14 L 1133.24 457.62 L 1134.89 460.22 L 1136.54 462.98 L 1138.19 465.92 L 1139.84 469.08 L 1141.49 472.52 L 1143.14 476.32 L 1144.79 480.62 L 1146.44 485.69 L 1148.09 492.17 L 1149.74 503.37" fill="none" stroke="#b3541e" stroke-width="4" stroke-dasharray="12 8" stroke-linecap="round" />
  </g>
</svg>
