<svg xmlns="http://www.w3.org/2000/svg" width="1200" height="650" viewBox="0 0 1200 650" role="img" aria-labelledby="title desc">
  <title id="title">Arcsine and semicircle densities on the interval from minus two to two</title>
  <desc id="desc">The arcsine density is U-shaped and diverges at both endpoints. The semicircle density is largest at zero and vanishes at both endpoints.</desc>
  <rect width="1200" height="650" fill="#fdfdfd" />
  <style>
    text { font-family: -apple-system, BlinkMacSystemFont, "Segoe UI", sans-serif; fill: #172033; letter-spacing: 0; }
    .title { font-size: 30px; font-weight: 700; }
    .subtitle { font-size: 18px; fill: #5d6778; }
    .tick { font-size: 16px; fill: #5d6778; }
    .label { font-size: 20px; font-weight: 700; paint-order: stroke; stroke: #fdfdfd; stroke-width: 6px; stroke-linejoin: round; }
    .arc-label { fill: #3157c8; }
    .semicircle-label { fill: #b3541e; }
    .note { font-size: 16px; fill: #5d6778; }
  </style>
  <defs>
    <clipPath id="plot-clip"><rect x="92" y="118" width="1038" height="417" /></clipPath>
    <marker id="arrow-blue" markerWidth="8" markerHeight="8" refX="4" refY="4" orient="auto">
      <path d="M0,8 L4,0 L8,8" fill="none" stroke="#3157c8" stroke-width="1.6" />
    </marker>
  </defs>

  <text x="92" y="48" class="title">Two limiting spectral densities on the same support</text>
  <text x="92" y="78" class="subtitle">Arcsine puts more mass near the edges; semicircle puts more mass in the bulk.</text>

  <line x1="92" y1="535.00" x2="1130" y2="535.00" stroke="#d9dee8" stroke-width="1" /><text x="76" y="540.00" text-anchor="end" class="tick">0</text><line x1="92" y1="435.71" x2="1130" y2="435.71" stroke="#d9dee8" stroke-width="1" /><text x="76" y="440.71" text-anchor="end" class="tick">0.25</text><line x1="92" y1="336.43" x2="1130" y2="336.43" stroke="#d9dee8" stroke-width="1" /><text x="76" y="341.43" text-anchor="end" class="tick">0.5</text><line x1="92" y1="237.14" x2="1130" y2="237.14" stroke="#d9dee8" stroke-width="1" /><text x="76" y="242.14" text-anchor="end" class="tick">0.75</text><line x1="92" y1="137.86" x2="1130" y2="137.86" stroke="#d9dee8" stroke-width="1" /><text x="76" y="142.86" text-anchor="end" class="tick">1</text>
  <line x1="92" y1="535" x2="1130" y2="535" stroke="#172033" stroke-width="1.8" />
  <line x1="92" y1="118" x2="92" y2="535" stroke="#172033" stroke-width="1.8" />
  <line x1="92.00" y1="535" x2="92.00" y2="543" stroke="#172033" stroke-width="1.5" /><text x="92.00" y="567" text-anchor="middle" class="tick">-2</text><line x1="351.50" y1="535" x2="351.50" y2="543" stroke="#172033" stroke-width="1.5" /><text x="351.50" y="567" text-anchor="middle" class="tick">-1</text><line x1="611.00" y1="535" x2="611.00" y2="543" stroke="#172033" stroke-width="1.5" /><text x="611.00" y="567" text-anchor="middle" class="tick">0</text><line x1="870.50" y1="535" x2="870.50" y2="543" stroke="#172033" stroke-width="1.5" /><text x="870.50" y="567" text-anchor="middle" class="tick">1</text><line x1="1130.00" y1="535" x2="1130.00" y2="543" stroke="#172033" stroke-width="1.5" /><text x="1130.00" y="567" text-anchor="middle" class="tick">2</text>
  <text x="611.00" y="601" text-anchor="middle" class="tick">x</text>
  <text x="28" y="326.50" text-anchor="middle" class="tick" transform="rotate(-90 28 326.50)">density</text>

  <g clip-path="url(#plot-clip)">
    <path d="M 92.26 118.00 L 94.42 118.00 L 96.58 118.00 L 98.74 141.63 L 100.91 192.32 L 103.07 227.28 L 105.23 253.24 L 107.39 273.50 L 109.55 289.87 L 111.71 303.46 L 113.87 314.96 L 116.04 324.86 L 118.20 333.50 L 120.36 341.13 L 122.52 347.92 L 124.68 354.02 L 126.84 359.53 L 129.00 364.55 L 131.17 369.14 L 133.33 373.36 L 135.49 377.26 L 137.65 380.87 L 139.81 384.23 L 141.97 387.37 L 144.13 390.30 L 146.29 393.05 L 148.46 395.64 L 150.62 398.09 L 152.78 400.40 L 154.94 402.58 L 157.10 404.65 L 159.26 406.62 L 161.42 408.49 L 163.59 410.28 L 165.75 411.98 L 167.91 413.61 L 170.07 415.17 L 172.23 416.66 L 174.39 418.09 L 176.55 419.46 L 178.72 420.78 L 180.88 422.05 L 183.04 423.27 L 185.20 424.45 L 187.36 425.59 L 189.52 426.68 L 191.68 427.74 L 193.85 428.76 L 196.01 429.75 L 198.17 430.70 L 200.33 431.63 L 202.49 432.53 L 204.65 433.40 L 206.81 434.24 L 208.98 435.06 L 211.14 435.85 L 213.30 436.62 L 215.46 437.37 L 217.62 438.10 L 219.78 438.81 L 221.94 439.50 L 224.11 440.17 L 226.27 440.83 L 228.43 441.46 L 230.59 442.08 L 232.75 442.69 L 234.91 443.28 L 237.07 443.86 L 239.24 444.42 L 241.40 444.97 L 243.56 445.50 L 245.72 446.02 L 247.88 446.53 L 250.04 447.03 L 252.20 447.52 L 254.37 448.00 L 256.53 448.47 L 258.69 448.92 L 260.85 449.37 L 263.01 449.80 L 265.17 450.23 L 267.33 450.65 L 269.50 451.06 L 271.66 451.46 L 273.82 451.86 L 275.98 452.24 L 278.14 452.62 L 280.30 452.99 L 282.46 453.35 L 284.63 453.71 L 286.79 454.06 L 288.95 454.40 L 291.11 454.73 L 293.27 455.06 L 295.43 455.39 L 297.59 455.70 L 299.76 456.01 L 301.92 456.32 L 304.08 456.62 L 306.24 456.91 L 308.40 457.20 L 310.56 457.48 L 312.72 457.76 L 314.89 458.04 L 317.05 458.31 L 319.21 458.57 L 321.37 458.83 L 323.53 459.08 L 325.69 459.33 L 327.85 459.58 L 330.02 459.82 L 332.18 460.06 L 334.34 460.29 L 336.50 460.52 L 338.66 460.75 L 340.82 460.97 L 342.98 461.19 L 345.15 461.40 L 347.31 461.62 L 349.47 461.82 L 351.63 462.03 L 353.79 462.23 L 355.95 462.42 L 358.11 462.62 L 360.28 462.81 L 362.44 463.00 L 364.60 463.18 L 366.76 463.36 L 368.92 463.54 L 371.08 463.72 L 373.24 463.89 L 375.41 464.06 L 377.57 464.23 L 379.73 464.40 L 381.89 464.56 L 384.05 464.72 L 386.21 464.87 L 388.37 465.03 L 390.54 465.18 L 392.70 465.33 L 394.86 465.48 L 397.02 465.62 L 399.18 465.76 L 401.34 465.90 L 403.50 466.04 L 405.67 466.18 L 407.83 466.31 L 409.99 466.44 L 412.15 466.57 L 414.31 466.70 L 416.47 466.82 L 418.63 466.95 L 420.80 467.07 L 422.96 467.19 L 425.12 467.30 L 427.28 467.42 L 429.44 467.53 L 431.60 467.64 L 433.76 467.75 L 435.93 467.86 L 438.09 467.96 L 440.25 468.07 L 442.41 468.17 L 444.57 468.27 L 446.73 468.37 L 448.89 468.46 L 451.06 468.56 L 453.22 468.65 L 455.38 468.74 L 457.54 468.83 L 459.70 468.92 L 461.86 469.01 L 464.02 469.09 L 466.18 469.18 L 468.35 469.26 L 470.51 469.34 L 472.67 469.42 L 474.83 469.50 L 476.99 469.57 L 479.15 469.65 L 481.31 469.72 L 483.48 469.79 L 485.64 469.86 L 487.80 469.93 L 489.96 470.00 L 492.12 470.07 L 494.28 470.13 L 496.44 470.19 L 498.61 470.26 L 500.77 470.32 L 502.93 470.38 L 505.09 470.43 L 507.25 470.49 L 509.41 470.55 L 511.57 470.60 L 513.74 470.65 L 515.90 470.70 L 518.06 470.75 L 520.22 470.80 L 522.38 470.85 L 524.54 470.90 L 526.70 470.94 L 528.87 470.99 L 531.03 471.03 L 533.19 471.07 L 535.35 471.11 L 537.51 471.15 L 539.67 471.19 L 541.83 471.22 L 544.00 471.26 L 546.16 471.29 L 548.32 471.33 L 550.48 471.36 L 552.64 471.39 L 554.80 471.42 L 556.96 471.45 L 559.13 471.47 L 561.29 471.50 L 563.45 471.53 L 565.61 471.55 L 567.77 471.57 L 569.93 471.59 L 572.09 471.61 L 574.26 471.63 L 576.42 471.65 L 578.58 471.67 L 580.74 471.69 L 582.90 471.70 L 585.06 471.71 L 587.22 471.73 L 589.39 471.74 L 591.55 471.75 L 593.71 471.76 L 595.87 471.77 L 598.03 471.77 L 600.19 471.78 L 602.35 471.78 L 604.52 471.79 L 606.68 471.79 L 608.84 471.79 L 611.00 471.79 L 613.16 471.79 L 615.32 471.79 L 617.48 471.79 L 619.65 471.78 L 621.81 471.78 L 623.97 471.77 L 626.13 471.77 L 628.29 471.76 L 630.45 471.75 L 632.61 471.74 L 634.78 471.73 L 636.94 471.71 L 639.10 471.70 L 641.26 471.69 L 643.42 471.67 L 645.58 471.65 L 647.74 471.63 L 649.91 471.61 L 652.07 471.59 L 654.23 471.57 L 656.39 471.55 L 658.55 471.53 L 660.71 471.50 L 662.87 471.47 L 665.04 471.45 L 667.20 471.42 L 669.36 471.39 L 671.52 471.36 L 673.68 471.33 L 675.84 471.29 L 678.00 471.26 L 680.17 471.22 L 682.33 471.19 L 684.49 471.15 L 686.65 471.11 L 688.81 471.07 L 690.97 471.03 L 693.13 470.99 L 695.30 470.94 L 697.46 470.90 L 699.62 470.85 L 701.78 470.80 L 703.94 470.75 L 706.10 470.70 L 708.26 470.65 L 710.43 470.60 L 712.59 470.55 L 714.75 470.49 L 716.91 470.43 L 719.07 470.38 L 721.23 470.32 L 723.39 470.26 L 725.56 470.19 L 727.72 470.13 L 729.88 470.07 L 732.04 470.00 L 734.20 469.93 L 736.36 469.86 L 738.52 469.79 L 740.69 469.72 L 742.85 469.65 L 745.01 469.57 L 747.17 469.50 L 749.33 469.42 L 751.49 469.34 L 753.65 469.26 L 755.82 469.18 L 757.98 469.09 L 760.14 469.01 L 762.30 468.92 L 764.46 468.83 L 766.62 468.74 L 768.78 468.65 L 770.94 468.56 L 773.11 468.46 L 775.27 468.37 L 777.43 468.27 L 779.59 468.17 L 781.75 468.07 L 783.91 467.96 L 786.07 467.86 L 788.24 467.75 L 790.40 467.64 L 792.56 467.53 L 794.72 467.42 L 796.88 467.30 L 799.04 467.19 L 801.20 467.07 L 803.37 466.95 L 805.53 466.82 L 807.69 466.70 L 809.85 466.57 L 812.01 466.44 L 814.17 466.31 L 816.33 466.18 L 818.50 466.04 L 820.66 465.90 L 822.82 465.76 L 824.98 465.62 L 827.14 465.48 L 829.30 465.33 L 831.46 465.18 L 833.63 465.03 L 835.79 464.87 L 837.95 464.72 L 840.11 464.56 L 842.27 464.40 L 844.43 464.23 L 846.59 464.06 L 848.76 463.89 L 850.92 463.72 L 853.08 463.54 L 855.24 463.36 L 857.40 463.18 L 859.56 463.00 L 861.72 462.81 L 863.89 462.62 L 866.05 462.42 L 868.21 462.23 L 870.37 462.03 L 872.53 461.82 L 874.69 461.62 L 876.85 461.40 L 879.02 461.19 L 881.18 460.97 L 883.34 460.75 L 885.50 460.52 L 887.66 460.29 L 889.82 460.06 L 891.98 459.82 L 894.15 459.58 L 896.31 459.33 L 898.47 459.08 L 900.63 458.83 L 902.79 458.57 L 904.95 458.31 L 907.11 458.04 L 909.28 457.76 L 911.44 457.48 L 913.60 457.20 L 915.76 456.91 L 917.92 456.62 L 920.08 456.32 L 922.24 456.01 L 924.41 455.70 L 926.57 455.39 L 928.73 455.06 L 930.89 454.73 L 933.05 454.40 L 935.21 454.06 L 937.37 453.71 L 939.54 453.35 L 941.70 452.99 L 943.86 452.62 L 946.02 452.24 L 948.18 451.86 L 950.34 451.46 L 952.50 451.06 L 954.67 450.65 L 956.83 450.23 L 958.99 449.80 L 961.15 449.37 L 963.31 448.92 L 965.47 448.47 L 967.63 448.00 L 969.80 447.52 L 971.96 447.03 L 974.12 446.53 L 976.28 446.02 L 978.44 445.50 L 980.60 444.97 L 982.76 444.42 L 984.93 443.86 L 987.09 443.28 L 989.25 442.69 L 991.41 442.08 L 993.57 441.46 L 995.73 440.83 L 997.89 440.17 L 1000.06 439.50 L 1002.22 438.81 L 1004.38 438.10 L 1006.54 437.37 L 1008.70 436.62 L 1010.86 435.85 L 1013.02 435.06 L 1015.19 434.24 L 1017.35 433.40 L 1019.51 432.53 L 1021.67 431.63 L 1023.83 430.70 L 1025.99 429.75 L 1028.15 428.76 L 1030.32 427.74 L 1032.48 426.68 L 1034.64 425.59 L 1036.80 424.45 L 1038.96 423.27 L 1041.12 422.05 L 1043.28 420.78 L 1045.45 419.46 L 1047.61 418.09 L 1049.77 416.66 L 1051.93 415.17 L 1054.09 413.61 L 1056.25 411.98 L 1058.41 410.28 L 1060.58 408.49 L 1062.74 406.62 L 1064.90 404.65 L 1067.06 402.58 L 1069.22 400.40 L 1071.38 398.09 L 1073.54 395.64 L 1075.71 393.05 L 1077.87 390.30 L 1080.03 387.37 L 1082.19 384.23 L 1084.35 380.87 L 1086.51 377.26 L 1088.67 373.36 L 1090.83 369.14 L 1093.00 364.55 L 1095.16 359.53 L 1097.32 354.02 L 1099.48 347.92 L 1101.64 341.13 L 1103.80 333.50 L 1105.96 324.86 L 1108.13 314.96 L 1110.29 303.46 L 1112.45 289.87 L 1114.61 273.50 L 1116.77 253.24 L 1118.93 227.28 L 1121.09 192.32 L 1123.26 141.63 L 1125.42 118.00 L 1127.58 118.00 L 1129.74 118.00" fill="none" stroke="#3157c8" stroke-width="4" stroke-linecap="round" />
    <path d="M 92.26 531.00 L 94.42 522.80 L 96.58 518.24 L 98.74 514.69 L 100.91 511.68 L 103.07 509.03 L 105.23 506.64 L 107.39 504.44 L 109.55 502.40 L 111.71 500.49 L 113.87 498.69 L 116.04 496.98 L 118.20 495.34 L 120.36 493.79 L 122.52 492.29 L 124.68 490.85 L 126.84 489.46 L 129.00 488.12 L 131.17 486.82 L 133.33 485.57 L 135.49 484.35 L 137.65 483.16 L 139.81 482.00 L 141.97 480.88 L 144.13 479.78 L 146.29 478.71 L 148.46 477.66 L 150.62 476.64 L 152.78 475.64 L 154.94 474.66 L 157.10 473.70 L 159.26 472.76 L 161.42 471.84 L 163.59 470.93 L 165.75 470.05 L 167.91 469.18 L 170.07 468.32 L 172.23 467.48 L 174.39 466.65 L 176.55 465.84 L 178.72 465.04 L 180.88 464.26 L 183.04 463.48 L 185.20 462.72 L 187.36 461.97 L 189.52 461.23 L 191.68 460.51 L 193.85 459.79 L 196.01 459.08 L 198.17 458.39 L 200.33 457.70 L 202.49 457.03 L 204.65 456.36 L 206.81 455.70 L 208.98 455.05 L 211.14 454.41 L 213.30 453.78 L 215.46 453.15 L 217.62 452.54 L 219.78 451.93 L 221.94 451.33 L 224.11 450.74 L 226.27 450.15 L 228.43 449.58 L 230.59 449.00 L 232.75 448.44 L 234.91 447.88 L 237.07 447.33 L 239.24 446.79 L 241.40 446.25 L 243.56 445.72 L 245.72 445.20 L 247.88 444.68 L 250.04 444.17 L 252.20 443.66 L 254.37 443.16 L 256.53 442.66 L 258.69 442.17 L 260.85 441.69 L 263.01 441.21 L 265.17 440.74 L 267.33 440.27 L 269.50 439.81 L 271.66 439.35 L 273.82 438.90 L 275.98 438.45 L 278.14 438.01 L 280.30 437.57 L 282.46 437.14 L 284.63 436.71 L 286.79 436.29 L 288.95 435.87 L 291.11 435.45 L 293.27 435.04 L 295.43 434.64 L 297.59 434.24 L 299.76 433.84 L 301.92 433.45 L 304.08 433.06 L 306.24 432.68 L 308.40 432.30 L 310.56 431.92 L 312.72 431.55 L 314.89 431.18 L 317.05 430.82 L 319.21 430.46 L 321.37 430.10 L 323.53 429.75 L 325.69 429.40 L 327.85 429.06 L 330.02 428.71 L 332.18 428.38 L 334.34 428.04 L 336.50 427.71 L 338.66 427.39 L 340.82 427.07 L 342.98 426.75 L 345.15 426.43 L 347.31 426.12 L 349.47 425.81 L 351.63 425.50 L 353.79 425.20 L 355.95 424.90 L 358.11 424.61 L 360.28 424.32 L 362.44 424.03 L 364.60 423.74 L 366.76 423.46 L 368.92 423.18 L 371.08 422.90 L 373.24 422.63 L 375.41 422.36 L 377.57 422.09 L 379.73 421.83 L 381.89 421.57 L 384.05 421.31 L 386.21 421.06 L 388.37 420.81 L 390.54 420.56 L 392.70 420.31 L 394.86 420.07 L 397.02 419.83 L 399.18 419.59 L 401.34 419.36 L 403.50 419.13 L 405.67 418.90 L 407.83 418.67 L 409.99 418.45 L 412.15 418.23 L 414.31 418.02 L 416.47 417.80 L 418.63 417.59 L 420.80 417.38 L 422.96 417.17 L 425.12 416.97 L 427.28 416.77 L 429.44 416.57 L 431.60 416.38 L 433.76 416.19 L 435.93 416.00 L 438.09 415.81 L 440.25 415.62 L 442.41 415.44 L 444.57 415.26 L 446.73 415.08 L 448.89 414.91 L 451.06 414.74 L 453.22 414.57 L 455.38 414.40 L 457.54 414.24 L 459.70 414.08 L 461.86 413.92 L 464.02 413.76 L 466.18 413.61 L 468.35 413.45 L 470.51 413.31 L 472.67 413.16 L 474.83 413.01 L 476.99 412.87 L 479.15 412.73 L 481.31 412.60 L 483.48 412.46 L 485.64 412.33 L 487.80 412.20 L 489.96 412.07 L 492.12 411.95 L 494.28 411.82 L 496.44 411.70 L 498.61 411.59 L 500.77 411.47 L 502.93 411.36 L 505.09 411.25 L 507.25 411.14 L 509.41 411.03 L 511.57 410.93 L 513.74 410.83 L 515.90 410.73 L 518.06 410.63 L 520.22 410.53 L 522.38 410.44 L 524.54 410.35 L 526.70 410.26 L 528.87 410.18 L 531.03 410.10 L 533.19 410.01 L 535.35 409.94 L 537.51 409.86 L 539.67 409.79 L 541.83 409.71 L 544.00 409.64 L 546.16 409.58 L 548.32 409.51 L 550.48 409.45 L 552.64 409.39 L 554.80 409.33 L 556.96 409.27 L 559.13 409.22 L 561.29 409.17 L 563.45 409.12 L 565.61 409.07 L 567.77 409.02 L 569.93 408.98 L 572.09 408.94 L 574.26 408.90 L 576.42 408.87 L 578.58 408.83 L 580.74 408.80 L 582.90 408.77 L 585.06 408.74 L 587.22 408.72 L 589.39 408.70 L 591.55 408.67 L 593.71 408.66 L 595.87 408.64 L 598.03 408.62 L 600.19 408.61 L 602.35 408.60 L 604.52 408.60 L 606.68 408.59 L 608.84 408.59 L 611.00 408.59 L 613.16 408.59 L 615.32 408.59 L 617.48 408.60 L 619.65 408.60 L 621.81 408.61 L 623.97 408.62 L 626.13 408.64 L 628.29 408.66 L 630.45 408.67 L 632.61 408.70 L 634.78 408.72 L 636.94 408.74 L 639.10 408.77 L 641.26 408.80 L 643.42 408.83 L 645.58 408.87 L 647.74 408.90 L 649.91 408.94 L 652.07 408.98 L 654.23 409.02 L 656.39 409.07 L 658.55 409.12 L 660.71 409.17 L 662.87 409.22 L 665.04 409.27 L 667.20 409.33 L 669.36 409.39 L 671.52 409.45 L 673.68 409.51 L 675.84 409.58 L 678.00 409.64 L 680.17 409.71 L 682.33 409.79 L 684.49 409.86 L 686.65 409.94 L 688.81 410.01 L 690.97 410.10 L 693.13 410.18 L 695.30 410.26 L 697.46 410.35 L 699.62 410.44 L 701.78 410.53 L 703.94 410.63 L 706.10 410.73 L 708.26 410.83 L 710.43 410.93 L 712.59 411.03 L 714.75 411.14 L 716.91 411.25 L 719.07 411.36 L 721.23 411.47 L 723.39 411.59 L 725.56 411.70 L 727.72 411.82 L 729.88 411.95 L 732.04 412.07 L 734.20 412.20 L 736.36 412.33 L 738.52 412.46 L 740.69 412.60 L 742.85 412.73 L 745.01 412.87 L 747.17 413.01 L 749.33 413.16 L 751.49 413.31 L 753.65 413.45 L 755.82 413.61 L 757.98 413.76 L 760.14 413.92 L 762.30 414.08 L 764.46 414.24 L 766.62 414.40 L 768.78 414.57 L 770.94 414.74 L 773.11 414.91 L 775.27 415.08 L 777.43 415.26 L 779.59 415.44 L 781.75 415.62 L 783.91 415.81 L 786.07 416.00 L 788.24 416.19 L 790.40 416.38 L 792.56 416.57 L 794.72 416.77 L 796.88 416.97 L 799.04 417.17 L 801.20 417.38 L 803.37 417.59 L 805.53 417.80 L 807.69 418.02 L 809.85 418.23 L 812.01 418.45 L 814.17 418.67 L 816.33 418.90 L 818.50 419.13 L 820.66 419.36 L 822.82 419.59 L 824.98 419.83 L 827.14 420.07 L 829.30 420.31 L 831.46 420.56 L 833.63 420.81 L 835.79 421.06 L 837.95 421.31 L 840.11 421.57 L 842.27 421.83 L 844.43 422.09 L 846.59 422.36 L 848.76 422.63 L 850.92 422.90 L 853.08 423.18 L 855.24 423.46 L 857.40 423.74 L 859.56 424.03 L 861.72 424.32 L 863.89 424.61 L 866.05 424.90 L 868.21 425.20 L 870.37 425.50 L 872.53 425.81 L 874.69 426.12 L 876.85 426.43 L 879.02 426.75 L 881.18 427.07 L 883.34 427.39 L 885.50 427.71 L 887.66 428.04 L 889.82 428.38 L 891.98 428.71 L 894.15 429.06 L 896.31 429.40 L 898.47 429.75 L 900.63 430.10 L 902.79 430.46 L 904.95 430.82 L 907.11 431.18 L 909.28 431.55 L 911.44 431.92 L 913.60 432.30 L 915.76 432.68 L 917.92 433.06 L 920.08 433.45 L 922.24 433.84 L 924.41 434.24 L 926.57 434.64 L 928.73 435.04 L 930.89 435.45 L 933.05 435.87 L 935.21 436.29 L 937.37 436.71 L 939.54 437.14 L 941.70 437.57 L 943.86 438.01 L 946.02 438.45 L 948.18 438.90 L 950.34 439.35 L 952.50 439.81 L 954.67 440.27 L 956.83 440.74 L 958.99 441.21 L 961.15 441.69 L 963.31 442.17 L 965.47 442.66 L 967.63 443.16 L 969.80 443.66 L 971.96 444.17 L 974.12 444.68 L 976.28 445.20 L 978.44 445.72 L 980.60 446.25 L 982.76 446.79 L 984.93 447.33 L 987.09 447.88 L 989.25 448.44 L 991.41 449.00 L 993.57 449.58 L 995.73 450.15 L 997.89 450.74 L 1000.06 451.33 L 1002.22 451.93 L 1004.38 452.54 L 1006.54 453.15 L 1008.70 453.78 L 1010.86 454.41 L 1013.02 455.05 L 1015.19 455.70 L 1017.35 456.36 L 1019.51 457.03 L 1021.67 457.70 L 1023.83 458.39 L 1025.99 459.08 L 1028.15 459.79 L 1030.32 460.51 L 1032.48 461.23 L 1034.64 461.97 L 1036.80 462.72 L 1038.96 463.48 L 1041.12 464.26 L 1043.28 465.04 L 1045.45 465.84 L 1047.61 466.65 L 1049.77 467.48 L 1051.93 468.32 L 1054.09 469.18 L 1056.25 470.05 L 1058.41 470.93 L 1060.58 471.84 L 1062.74 472.76 L 1064.90 473.70 L 1067.06 474.66 L 1069.22 475.64 L 1071.38 476.64 L 1073.54 477.66 L 1075.71 478.71 L 1077.87 479.78 L 1080.03 480.88 L 1082.19 482.00 L 1084.35 483.16 L 1086.51 484.35 L 1088.67 485.57 L 1090.83 486.82 L 1093.00 488.12 L 1095.16 489.46 L 1097.32 490.85 L 1099.48 492.29 L 1101.64 493.79 L 1103.80 495.34 L 1105.96 496.98 L 1108.13 498.69 L 1110.29 500.49 L 1112.45 502.40 L 1114.61 504.44 L 1116.77 506.64 L 1118.93 509.03 L 1121.09 511.68 L 1123.26 514.69 L 1125.42 518.24 L 1127.58 522.80 L 1129.74 531.00" fill="none" stroke="#b3541e" stroke-width="4" stroke-dasharray="12 8" stroke-linecap="round" />
  </g>

  <line x1="107.57" y1="163" x2="107.57" y2="124" stroke="#3157c8" stroke-width="3" marker-end="url(#arrow-blue)" />
  <line x1="1114.43" y1="163" x2="1114.43" y2="124" stroke="#3157c8" stroke-width="3" marker-end="url(#arrow-blue)" />
  <text x="162.06" y="160" class="note" fill="#3157c8">diverges</text>
  <text x="1059.93" y="160" text-anchor="end" class="note" fill="#3157c8">diverges</text>

  <text x="398.21" y="513.70" class="label arc-label">arcsine</text>
  <line x1="460.49" y1="499.70" x2="520.17" y2="473.80" stroke="#3157c8" stroke-width="3" />
  <text x="727.78" y="387.83" class="label semicircle-label">semicircle</text>
  <line x1="727.78" y1="396.83" x2="883.47" y2="425.41" stroke="#b3541e" stroke-width="3" stroke-dasharray="10 7" />

  <text x="92" y="626" class="note">The arcsine curve is clipped vertically; its density tends to infinity as x approaches either endpoint.</text>
</svg>
