<svg xmlns="http://www.w3.org/2000/svg" viewBox="0 0 1100 700" role="img" aria-labelledby="title desc">
  <title id="title">Detection regions for the polarized-noise two-qubit family</title>
  <desc id="desc">For positive p and gamma the family is NPT entangled. The lower grey region is missed by both norm tests, the middle light teal region is detected only by the centered criterion, and the upper dark teal region is detected by both the centered and de Vicente criteria. The colored regions show right-hand limits near gamma zero; the exact gamma-zero axis is separable and is drawn separately. A marked example at gamma equal to one half arcsine of three fifths and p equal to 0.45 is detected only by centering.</desc>
  <rect width="1100" height="700" fill="#ffffff"/>
  <style>
    .axis { stroke: #172033; stroke-width: 2.4; }
    .grid { stroke: #c9d1da; stroke-width: 1; }
    .tick { font: 18px -apple-system, BlinkMacSystemFont, "Segoe UI", sans-serif; fill: #435064; }
    .math-tick { font: 19px Georgia, "Times New Roman", serif; fill: #435064; }
    .label { font: 22px -apple-system, BlinkMacSystemFont, "Segoe UI", sans-serif; fill: #172033; }
    .region { font: 600 21px -apple-system, BlinkMacSystemFont, "Segoe UI", sans-serif; }
    .small { font: 17px -apple-system, BlinkMacSystemFont, "Segoe UI", sans-serif; fill: #526173; }
    .boundary-centered { font: 17px -apple-system, BlinkMacSystemFont, "Segoe UI", sans-serif; fill: #a33b20; }
    .boundary-devicente { font: 17px -apple-system, BlinkMacSystemFont, "Segoe UI", sans-serif; fill: #172033; }
    .annotation { font: 17px -apple-system, BlinkMacSystemFont, "Segoe UI", sans-serif; fill: #ffffff; }
  </style>
  <polygon points="100.00,600.00 1055.00,600.00 1055.00,493.00 1049.69,493.30 1044.39,493.59 1039.08,493.87 1033.78,494.15 1028.47,494.43 1023.17,494.69 1017.86,494.96 1012.56,495.22 1007.25,495.47 1001.94,495.72 996.64,495.96 991.33,496.20 986.03,496.43 980.72,496.66 975.42,496.89 970.11,497.11 964.81,497.32 959.50,497.53 954.19,497.73 948.89,497.93 943.58,498.13 938.28,498.32 932.97,498.50 927.67,498.69 922.36,498.86 917.06,499.04 911.75,499.20 906.44,499.37 901.14,499.53 895.83,499.68 890.53,499.83 885.22,499.98 879.92,500.12 874.61,500.26 869.31,500.39 864.00,500.52 858.69,500.64 853.39,500.76 848.08,500.88 842.78,500.99 837.47,501.10 832.17,501.21 826.86,501.31 821.56,501.40 816.25,501.49 810.94,501.58 805.64,501.67 800.33,501.74 795.03,501.82 789.72,501.89 784.42,501.96 779.11,502.02 773.81,502.08 768.50,502.14 763.19,502.19 757.89,502.24 752.58,502.29 747.28,502.33 741.97,502.36 736.67,502.39 731.36,502.42 726.06,502.45 720.75,502.47 715.44,502.49 710.14,502.50 704.83,502.51 699.53,502.51 694.22,502.52 688.92,502.51 683.61,502.51 678.31,502.50 673.00,502.48 667.69,502.47 662.39,502.45 657.08,502.42 651.78,502.39 646.47,502.36 641.17,502.32 635.86,502.28 630.56,502.23 625.25,502.19 619.94,502.13 614.64,502.08 609.33,502.02 604.03,501.95 598.72,501.88 593.42,501.81 588.11,501.74 582.81,501.66 577.50,501.57 572.19,501.48 566.89,501.39 561.58,501.29 556.28,501.19 550.97,501.09 545.67,500.98 540.36,500.87 535.06,500.75 529.75,500.63 524.44,500.51 519.14,500.38 513.83,500.24 508.53,500.11 503.22,499.96 497.92,499.82 492.61,499.67 487.31,499.51 482.00,499.35 476.69,499.19 471.39,499.02 466.08,498.85 460.78,498.67 455.47,498.49 450.17,498.31 444.86,498.12 439.56,497.92 434.25,497.72 428.94,497.52 423.64,497.31 418.33,497.10 413.03,496.88 407.72,496.66 402.42,496.43 397.11,496.20 391.81,495.96 386.50,495.72 381.19,495.47 375.89,495.22 370.58,494.96 365.28,494.70 359.97,494.43 354.67,494.16 349.36,493.88 344.06,493.60 338.75,493.31 333.44,493.02 328.14,492.72 322.83,492.41 317.53,492.10 312.22,491.78 306.92,491.46 301.61,491.13 296.31,490.80 291.00,490.46 285.69,490.12 280.39,489.77 275.08,489.41 269.78,489.05 264.47,488.68 259.17,488.30 253.86,487.92 248.56,487.53 243.25,487.13 237.94,486.73 232.64,486.33 227.33,485.91 222.03,485.49 216.72,485.06 211.42,484.62 206.11,484.18 200.81,483.73 195.50,483.28 190.19,482.81 184.89,482.34 179.58,481.86 174.28,481.37 168.97,480.88 163.67,480.38 158.36,479.87 153.06,479.35 147.75,478.82 142.44,478.29 137.14,477.75 131.83,477.20 126.53,476.64 121.22,476.07 115.92,475.49 110.61,474.90 105.31,474.31 100.00,473.70" fill="#eef1f4"/>
  <polygon points="100.00,473.70 105.31,474.31 110.61,474.90 115.92,475.49 121.22,476.07 126.53,476.64 131.83,477.20 137.14,477.75 142.44,478.29 147.75,478.82 153.06,479.35 158.36,479.87 163.67,480.38 168.97,480.88 174.28,481.37 179.58,481.86 184.89,482.34 190.19,482.81 195.50,483.28 200.81,483.73 206.11,484.18 211.42,484.62 216.72,485.06 222.03,485.49 227.33,485.91 232.64,486.33 237.94,486.73 243.25,487.13 248.56,487.53 253.86,487.92 259.17,488.30 264.47,488.68 269.78,489.05 275.08,489.41 280.39,489.77 285.69,490.12 291.00,490.46 296.31,490.80 301.61,491.13 306.92,491.46 312.22,491.78 317.53,492.10 322.83,492.41 328.14,492.72 333.44,493.02 338.75,493.31 344.06,493.60 349.36,493.88 354.67,494.16 359.97,494.43 365.28,494.70 370.58,494.96 375.89,495.22 381.19,495.47 386.50,495.72 391.81,495.96 397.11,496.20 402.42,496.43 407.72,496.66 413.03,496.88 418.33,497.10 423.64,497.31 428.94,497.52 434.25,497.72 439.56,497.92 444.86,498.12 450.17,498.31 455.47,498.49 460.78,498.67 466.08,498.85 471.39,499.02 476.69,499.19 482.00,499.35 487.31,499.51 492.61,499.67 497.92,499.82 503.22,499.96 508.53,500.11 513.83,500.24 519.14,500.38 524.44,500.51 529.75,500.63 535.06,500.75 540.36,500.87 545.67,500.98 550.97,501.09 556.28,501.19 561.58,501.29 566.89,501.39 572.19,501.48 577.50,501.57 582.81,501.66 588.11,501.74 593.42,501.81 598.72,501.88 604.03,501.95 609.33,502.02 614.64,502.08 619.94,502.13 625.25,502.19 630.56,502.23 635.86,502.28 641.17,502.32 646.47,502.36 651.78,502.39 657.08,502.42 662.39,502.45 667.69,502.47 673.00,502.48 678.31,502.50 683.61,502.51 688.92,502.51 694.22,502.52 699.53,502.51 704.83,502.51 710.14,502.50 715.44,502.49 720.75,502.47 726.06,502.45 731.36,502.42 736.67,502.39 741.97,502.36 747.28,502.33 752.58,502.29 757.89,502.24 763.19,502.19 768.50,502.14 773.81,502.08 779.11,502.02 784.42,501.96 789.72,501.89 795.03,501.82 800.33,501.74 805.64,501.67 810.94,501.58 816.25,501.49 821.56,501.40 826.86,501.31 832.17,501.21 837.47,501.10 842.78,500.99 848.08,500.88 853.39,500.76 858.69,500.64 864.00,500.52 869.31,500.39 874.61,500.26 879.92,500.12 885.22,499.98 890.53,499.83 895.83,499.68 901.14,499.53 906.44,499.37 911.75,499.20 917.06,499.04 922.36,498.86 927.67,498.69 932.97,498.50 938.28,498.32 943.58,498.13 948.89,497.93 954.19,497.73 959.50,497.53 964.81,497.32 970.11,497.11 975.42,496.89 980.72,496.66 986.03,496.43 991.33,496.20 996.64,495.96 1001.94,495.72 1007.25,495.47 1012.56,495.22 1017.86,494.96 1023.17,494.69 1028.47,494.43 1033.78,494.15 1039.08,493.87 1044.39,493.59 1049.69,493.30 1055.00,493.00 1055.00,421.67 1049.69,421.66 1044.39,421.65 1039.08,421.63 1033.78,421.59 1028.47,421.55 1023.17,421.50 1017.86,421.44 1012.56,421.38 1007.25,421.30 1001.94,421.21 996.64,421.12 991.33,421.01 986.03,420.90 980.72,420.78 975.42,420.64 970.11,420.50 964.81,420.35 959.50,420.19 954.19,420.02 948.89,419.84 943.58,419.65 938.28,419.46 932.97,419.25 927.67,419.03 922.36,418.80 917.06,418.57 911.75,418.32 906.44,418.06 901.14,417.80 895.83,417.52 890.53,417.24 885.22,416.94 879.92,416.63 874.61,416.32 869.31,415.99 864.00,415.65 858.69,415.30 853.39,414.95 848.08,414.58 842.78,414.20 837.47,413.81 832.17,413.40 826.86,412.99 821.56,412.57 816.25,412.13 810.94,411.69 805.64,411.23 800.33,410.76 795.03,410.28 789.72,409.79 784.42,409.28 779.11,408.76 773.81,408.23 768.50,407.69 763.19,407.14 757.89,406.57 752.58,405.99 747.28,405.40 741.97,404.80 736.67,404.18 731.36,403.54 726.06,402.90 720.75,402.24 715.44,401.56 710.14,400.88 704.83,400.17 699.53,399.46 694.22,398.73 688.92,397.98 683.61,397.22 678.31,396.44 673.00,395.65 667.69,394.84 662.39,394.01 657.08,393.17 651.78,392.32 646.47,391.44 641.17,390.55 635.86,389.64 630.56,388.71 625.25,387.77 619.94,386.80 614.64,385.82 609.33,384.82 604.03,383.80 598.72,382.76 593.42,381.70 588.11,380.62 582.81,379.52 577.50,378.40 572.19,377.25 566.89,376.09 561.58,374.90 556.28,373.69 550.97,372.45 545.67,371.20 540.36,369.92 535.06,368.61 529.75,367.28 524.44,365.92 519.14,364.54 513.83,363.13 508.53,361.70 503.22,360.23 497.92,358.74 492.61,357.22 487.31,355.67 482.00,354.09 476.69,352.48 471.39,350.83 466.08,349.16 460.78,347.45 455.47,345.71 450.17,343.93 444.86,342.12 439.56,340.27 434.25,338.39 428.94,336.46 423.64,334.50 418.33,332.50 413.03,330.46 407.72,328.37 402.42,326.25 397.11,324.08 391.81,321.86 386.50,319.60 381.19,317.29 375.89,314.93 370.58,312.52 365.28,310.06 359.97,307.55 354.67,304.99 349.36,302.36 344.06,299.68 338.75,296.95 333.44,294.15 328.14,291.29 322.83,288.36 317.53,285.37 312.22,282.31 306.92,279.18 301.61,275.98 296.31,272.70 291.00,269.35 285.69,265.92 280.39,262.41 275.08,258.81 269.78,255.12 264.47,251.35 259.17,247.48 253.86,243.51 248.56,239.45 243.25,235.28 237.94,231.01 232.64,226.63 227.33,222.13 222.03,217.51 216.72,212.77 211.42,207.91 206.11,202.91 200.81,197.77 195.50,192.50 190.19,187.07 184.89,181.49 179.58,175.75 174.28,169.85 168.97,163.77 163.67,157.51 158.36,151.06 153.06,144.41 147.75,137.56 142.44,130.50 137.14,123.21 131.83,115.69 126.53,107.93 121.22,99.91 115.92,91.62 110.61,83.04 105.31,74.18 100.00,65.00" fill="#b9e1df"/>
  <polygon points="100.00,65.00 105.31,74.18 110.61,83.04 115.92,91.62 121.22,99.91 126.53,107.93 131.83,115.69 137.14,123.21 142.44,130.50 147.75,137.56 153.06,144.41 158.36,151.06 163.67,157.51 168.97,163.77 174.28,169.85 179.58,175.75 184.89,181.49 190.19,187.07 195.50,192.50 200.81,197.77 206.11,202.91 211.42,207.91 216.72,212.77 222.03,217.51 227.33,222.13 232.64,226.63 237.94,231.01 243.25,235.28 248.56,239.45 253.86,243.51 259.17,247.48 264.47,251.35 269.78,255.12 275.08,258.81 280.39,262.41 285.69,265.92 291.00,269.35 296.31,272.70 301.61,275.98 306.92,279.18 312.22,282.31 317.53,285.37 322.83,288.36 328.14,291.29 333.44,294.15 338.75,296.95 344.06,299.68 349.36,302.36 354.67,304.99 359.97,307.55 365.28,310.06 370.58,312.52 375.89,314.93 381.19,317.29 386.50,319.60 391.81,321.86 397.11,324.08 402.42,326.25 407.72,328.37 413.03,330.46 418.33,332.50 423.64,334.50 428.94,336.46 434.25,338.39 439.56,340.27 444.86,342.12 450.17,343.93 455.47,345.71 460.78,347.45 466.08,349.16 471.39,350.83 476.69,352.48 482.00,354.09 487.31,355.67 492.61,357.22 497.92,358.74 503.22,360.23 508.53,361.70 513.83,363.13 519.14,364.54 524.44,365.92 529.75,367.28 535.06,368.61 540.36,369.92 545.67,371.20 550.97,372.45 556.28,373.69 561.58,374.90 566.89,376.09 572.19,377.25 577.50,378.40 582.81,379.52 588.11,380.62 593.42,381.70 598.72,382.76 604.03,383.80 609.33,384.82 614.64,385.82 619.94,386.80 625.25,387.77 630.56,388.71 635.86,389.64 641.17,390.55 646.47,391.44 651.78,392.32 657.08,393.17 662.39,394.01 667.69,394.84 673.00,395.65 678.31,396.44 683.61,397.22 688.92,397.98 694.22,398.73 699.53,399.46 704.83,400.17 710.14,400.88 715.44,401.56 720.75,402.24 726.06,402.90 731.36,403.54 736.67,404.18 741.97,404.80 747.28,405.40 752.58,405.99 757.89,406.57 763.19,407.14 768.50,407.69 773.81,408.23 779.11,408.76 784.42,409.28 789.72,409.79 795.03,410.28 800.33,410.76 805.64,411.23 810.94,411.69 816.25,412.13 821.56,412.57 826.86,412.99 832.17,413.40 837.47,413.81 842.78,414.20 848.08,414.58 853.39,414.95 858.69,415.30 864.00,415.65 869.31,415.99 874.61,416.32 879.92,416.63 885.22,416.94 890.53,417.24 895.83,417.52 901.14,417.80 906.44,418.06 911.75,418.32 917.06,418.57 922.36,418.80 927.67,419.03 932.97,419.25 938.28,419.46 943.58,419.65 948.89,419.84 954.19,420.02 959.50,420.19 964.81,420.35 970.11,420.50 975.42,420.64 980.72,420.78 986.03,420.90 991.33,421.01 996.64,421.12 1001.94,421.21 1007.25,421.30 1012.56,421.38 1017.86,421.44 1023.17,421.50 1028.47,421.55 1033.78,421.59 1039.08,421.63 1044.39,421.65 1049.69,421.66 1055.00,421.67 1055.00,65.00 100.00,65.00" fill="#087f8c"/>
  <line class="grid" x1="100" y1="600.00" x2="1055" y2="600.00"/><line class="grid" x1="100" y1="493.00" x2="1055" y2="493.00"/><line class="grid" x1="100" y1="386.00" x2="1055" y2="386.00"/><line class="grid" x1="100" y1="279.00" x2="1055" y2="279.00"/><line class="grid" x1="100" y1="172.00" x2="1055" y2="172.00"/><line class="grid" x1="100" y1="65.00" x2="1055" y2="65.00"/><line class="grid" x1="100.00" y1="65" x2="100.00" y2="600"/><line class="grid" x1="418.33" y1="65" x2="418.33" y2="600"/><line class="grid" x1="736.67" y1="65" x2="736.67" y2="600"/><line class="grid" x1="1055.00" y1="65" x2="1055.00" y2="600"/>
  <polyline points="100.00,473.70 105.31,474.31 110.61,474.90 115.92,475.49 121.22,476.07 126.53,476.64 131.83,477.20 137.14,477.75 142.44,478.29 147.75,478.82 153.06,479.35 158.36,479.87 163.67,480.38 168.97,480.88 174.28,481.37 179.58,481.86 184.89,482.34 190.19,482.81 195.50,483.28 200.81,483.73 206.11,484.18 211.42,484.62 216.72,485.06 222.03,485.49 227.33,485.91 232.64,486.33 237.94,486.73 243.25,487.13 248.56,487.53 253.86,487.92 259.17,488.30 264.47,488.68 269.78,489.05 275.08,489.41 280.39,489.77 285.69,490.12 291.00,490.46 296.31,490.80 301.61,491.13 306.92,491.46 312.22,491.78 317.53,492.10 322.83,492.41 328.14,492.72 333.44,493.02 338.75,493.31 344.06,493.60 349.36,493.88 354.67,494.16 359.97,494.43 365.28,494.70 370.58,494.96 375.89,495.22 381.19,495.47 386.50,495.72 391.81,495.96 397.11,496.20 402.42,496.43 407.72,496.66 413.03,496.88 418.33,497.10 423.64,497.31 428.94,497.52 434.25,497.72 439.56,497.92 444.86,498.12 450.17,498.31 455.47,498.49 460.78,498.67 466.08,498.85 471.39,499.02 476.69,499.19 482.00,499.35 487.31,499.51 492.61,499.67 497.92,499.82 503.22,499.96 508.53,500.11 513.83,500.24 519.14,500.38 524.44,500.51 529.75,500.63 535.06,500.75 540.36,500.87 545.67,500.98 550.97,501.09 556.28,501.19 561.58,501.29 566.89,501.39 572.19,501.48 577.50,501.57 582.81,501.66 588.11,501.74 593.42,501.81 598.72,501.88 604.03,501.95 609.33,502.02 614.64,502.08 619.94,502.13 625.25,502.19 630.56,502.23 635.86,502.28 641.17,502.32 646.47,502.36 651.78,502.39 657.08,502.42 662.39,502.45 667.69,502.47 673.00,502.48 678.31,502.50 683.61,502.51 688.92,502.51 694.22,502.52 699.53,502.51 704.83,502.51 710.14,502.50 715.44,502.49 720.75,502.47 726.06,502.45 731.36,502.42 736.67,502.39 741.97,502.36 747.28,502.33 752.58,502.29 757.89,502.24 763.19,502.19 768.50,502.14 773.81,502.08 779.11,502.02 784.42,501.96 789.72,501.89 795.03,501.82 800.33,501.74 805.64,501.67 810.94,501.58 816.25,501.49 821.56,501.40 826.86,501.31 832.17,501.21 837.47,501.10 842.78,500.99 848.08,500.88 853.39,500.76 858.69,500.64 864.00,500.52 869.31,500.39 874.61,500.26 879.92,500.12 885.22,499.98 890.53,499.83 895.83,499.68 901.14,499.53 906.44,499.37 911.75,499.20 917.06,499.04 922.36,498.86 927.67,498.69 932.97,498.50 938.28,498.32 943.58,498.13 948.89,497.93 954.19,497.73 959.50,497.53 964.81,497.32 970.11,497.11 975.42,496.89 980.72,496.66 986.03,496.43 991.33,496.20 996.64,495.96 1001.94,495.72 1007.25,495.47 1012.56,495.22 1017.86,494.96 1023.17,494.69 1028.47,494.43 1033.78,494.15 1039.08,493.87 1044.39,493.59 1049.69,493.30 1055.00,493.00" fill="none" stroke="#a33b20" stroke-width="4"/>
  <polyline points="100.00,65.00 105.31,74.18 110.61,83.04 115.92,91.62 121.22,99.91 126.53,107.93 131.83,115.69 137.14,123.21 142.44,130.50 147.75,137.56 153.06,144.41 158.36,151.06 163.67,157.51 168.97,163.77 174.28,169.85 179.58,175.75 184.89,181.49 190.19,187.07 195.50,192.50 200.81,197.77 206.11,202.91 211.42,207.91 216.72,212.77 222.03,217.51 227.33,222.13 232.64,226.63 237.94,231.01 243.25,235.28 248.56,239.45 253.86,243.51 259.17,247.48 264.47,251.35 269.78,255.12 275.08,258.81 280.39,262.41 285.69,265.92 291.00,269.35 296.31,272.70 301.61,275.98 306.92,279.18 312.22,282.31 317.53,285.37 322.83,288.36 328.14,291.29 333.44,294.15 338.75,296.95 344.06,299.68 349.36,302.36 354.67,304.99 359.97,307.55 365.28,310.06 370.58,312.52 375.89,314.93 381.19,317.29 386.50,319.60 391.81,321.86 397.11,324.08 402.42,326.25 407.72,328.37 413.03,330.46 418.33,332.50 423.64,334.50 428.94,336.46 434.25,338.39 439.56,340.27 444.86,342.12 450.17,343.93 455.47,345.71 460.78,347.45 466.08,349.16 471.39,350.83 476.69,352.48 482.00,354.09 487.31,355.67 492.61,357.22 497.92,358.74 503.22,360.23 508.53,361.70 513.83,363.13 519.14,364.54 524.44,365.92 529.75,367.28 535.06,368.61 540.36,369.92 545.67,371.20 550.97,372.45 556.28,373.69 561.58,374.90 566.89,376.09 572.19,377.25 577.50,378.40 582.81,379.52 588.11,380.62 593.42,381.70 598.72,382.76 604.03,383.80 609.33,384.82 614.64,385.82 619.94,386.80 625.25,387.77 630.56,388.71 635.86,389.64 641.17,390.55 646.47,391.44 651.78,392.32 657.08,393.17 662.39,394.01 667.69,394.84 673.00,395.65 678.31,396.44 683.61,397.22 688.92,397.98 694.22,398.73 699.53,399.46 704.83,400.17 710.14,400.88 715.44,401.56 720.75,402.24 726.06,402.90 731.36,403.54 736.67,404.18 741.97,404.80 747.28,405.40 752.58,405.99 757.89,406.57 763.19,407.14 768.50,407.69 773.81,408.23 779.11,408.76 784.42,409.28 789.72,409.79 795.03,410.28 800.33,410.76 805.64,411.23 810.94,411.69 816.25,412.13 821.56,412.57 826.86,412.99 832.17,413.40 837.47,413.81 842.78,414.20 848.08,414.58 853.39,414.95 858.69,415.30 864.00,415.65 869.31,415.99 874.61,416.32 879.92,416.63 885.22,416.94 890.53,417.24 895.83,417.52 901.14,417.80 906.44,418.06 911.75,418.32 917.06,418.57 922.36,418.80 927.67,419.03 932.97,419.25 938.28,419.46 943.58,419.65 948.89,419.84 954.19,420.02 959.50,420.19 964.81,420.35 970.11,420.50 975.42,420.64 980.72,420.78 986.03,420.90 991.33,421.01 996.64,421.12 1001.94,421.21 1007.25,421.30 1012.56,421.38 1017.86,421.44 1023.17,421.50 1028.47,421.55 1033.78,421.59 1039.08,421.63 1044.39,421.65 1049.69,421.66 1055.00,421.67" fill="none" stroke="#172033" stroke-width="4"/>
  <line x1="100" y1="65" x2="100" y2="600" stroke="#ffffff" stroke-width="9"/>
  <line class="axis" x1="100" y1="600" x2="1055" y2="600"/>
  <line class="axis" x1="100" y1="65" x2="100" y2="600"/>
  <circle cx="100.00" cy="473.70" r="6" fill="#ffffff" stroke="#a33b20" stroke-width="3"/>
  <circle cx="100.00" cy="65.00" r="6" fill="#ffffff" stroke="#172033" stroke-width="3"/>
  <text class="tick" x="82" y="606.00" text-anchor="end">0.0</text><text class="tick" x="82" y="499.00" text-anchor="end">0.2</text><text class="tick" x="82" y="392.00" text-anchor="end">0.4</text><text class="tick" x="82" y="285.00" text-anchor="end">0.6</text><text class="tick" x="82" y="178.00" text-anchor="end">0.8</text><text class="tick" x="82" y="71.00" text-anchor="end">1.0</text><text class="math-tick" x="100.00" y="632" text-anchor="middle">0</text><text class="math-tick" x="418.33" y="632" text-anchor="middle">π/12</text><text class="math-tick" x="736.67" y="632" text-anchor="middle">π/6</text><text class="math-tick" x="1055.00" y="632" text-anchor="middle">π/4</text>
  <text class="label" x="577.50" y="672" text-anchor="middle">Schmidt angle γ (radians)</text>
  <text class="label" transform="translate(30 332.50) rotate(-90)" text-anchor="middle">mixture weight p</text>
  <text class="region" x="757.89" y="182.70" text-anchor="middle" fill="#ffffff">detected by both</text>
  <text class="region" x="736.67" y="434.15" text-anchor="middle" fill="#172033">centered criterion only</text>
  <text class="region" x="757.89" y="557.20" text-anchor="middle" fill="#526173">NPT, neither test detects</text>
  <text class="boundary-centered" x="1012.56" y="481.22" text-anchor="end">centered boundary</text>
  <text class="boundary-devicente" x="1012.56" y="407.38" text-anchor="end">de Vicente boundary</text>
  <circle cx="491.23" cy="359.25" r="8" fill="#ffffff" stroke="#a33b20" stroke-width="4"/>
  <path d="M 501.23 353.25 L 581.23 289.25" fill="none" stroke="#a33b20" stroke-width="2"/>
  <text class="annotation" x="587.23" y="283.25">example: p=0.45, γ=½ arcsin(3/5)</text>
</svg>